<svg xmlns="http://www.w3.org/2000/svg" xmlns:xlink="http://www.w3.org/1999/xlink" width="567" zoomAndPan="magnify" viewBox="0 0 425.25 425.249985" height="567" preserveAspectRatio="xMidYMid meet" version="1.0"><defs><clipPath id="50e7d0f42a"><path d="M 0 0 L 424.5 0 L 424.5 424.5 L 0 424.5 Z M 0 0 " clip-rule="nonzero"/></clipPath><clipPath id="3d5848a320"><path d="M 51.660156 124.597656 L 113.371094 124.597656 L 113.371094 374.574219 L 51.660156 374.574219 Z M 51.660156 124.597656 " clip-rule="nonzero"/></clipPath><clipPath id="9c7457d4a1"><path d="M 313.84375 124.597656 L 375.554688 124.597656 L 375.554688 374.574219 L 313.84375 374.574219 Z M 313.84375 124.597656 " clip-rule="nonzero"/></clipPath><clipPath id="2ce7fde8c4"><path d="M 51 49 L 214 49 L 214 319 L 51 319 Z M 51 49 " clip-rule="nonzero"/></clipPath><clipPath id="0948332777"><path d="M 51.875 49.097656 L 257.984375 278.003906 L 213.113281 318.40625 L 7.007812 89.5 Z M 51.875 49.097656 " clip-rule="nonzero"/></clipPath><clipPath id="14410f735d"><path d="M 213.042969 228.089844 L 51.875 49.097656 L 51.902344 139.359375 L 213.066406 318.351562 Z M 213.042969 228.089844 " clip-rule="nonzero"/></clipPath><clipPath id="7717be0398"><path d="M 211 49 L 376 49 L 376 319 L 211 319 Z M 211 49 " clip-rule="nonzero"/></clipPath><clipPath id="40a0c50309"><path d="M 167.996094 277.96875 L 374.140625 49.019531 L 418.984375 89.398438 L 212.839844 318.347656 Z M 167.996094 277.96875 " clip-rule="nonzero"/></clipPath><clipPath id="235f81716e"><path d="M 211.292969 229.882812 L 374.042969 49.132812 L 375.589844 137.59375 L 212.839844 318.347656 Z M 211.292969 229.882812 " clip-rule="nonzero"/></clipPath></defs><g clip-path="url(#50e7d0f42a)"><path fill="#ffffff" d="M 0 0 L 424.5 0 L 424.5 424.5 L 0 424.5 Z M 0 0 " fill-opacity="1" fill-rule="nonzero"/><path fill="#ffffff" d="M 0 0 L 424.5 0 L 424.5 424.5 L 0 424.5 Z M 0 0 " fill-opacity="1" fill-rule="nonzero"/></g><g clip-path="url(#3d5848a320)"><path fill="#000000" d="M 51.660156 124.597656 L 113.371094 124.597656 L 113.371094 374.566406 L 51.660156 374.566406 Z M 51.660156 124.597656 " fill-opacity="1" fill-rule="nonzero"/></g><g clip-path="url(#9c7457d4a1)"><path fill="#000000" d="M 313.84375 124.597656 L 375.554688 124.597656 L 375.554688 374.566406 L 313.84375 374.566406 Z M 313.84375 124.597656 " fill-opacity="1" fill-rule="nonzero"/></g><g clip-path="url(#2ce7fde8c4)"><g clip-path="url(#0948332777)"><g clip-path="url(#14410f735d)"><path fill="#000000" d="M 51.875 49.097656 L 257.984375 278.003906 L 213.113281 318.40625 L 7.007812 89.5 Z M 51.875 49.097656 " fill-opacity="1" fill-rule="nonzero"/></g></g></g><g clip-path="url(#7717be0398)"><g clip-path="url(#40a0c50309)"><g clip-path="url(#235f81716e)"><path fill="#000000" d="M 167.996094 277.96875 L 373.984375 49.195312 L 418.828125 89.574219 L 212.839844 318.347656 Z M 167.996094 277.96875 " fill-opacity="1" fill-rule="nonzero"/></g></g></g></svg>